<?xml version="1.0" encoding="UTF-8"?>
<svg id="Layer_1" xmlns="http://www.w3.org/2000/svg" version="1.1" viewBox="0 0 200 200">
  <!-- Generator: Adobe Illustrator 30.4.0, SVG Export Plug-In . SVG Version: 2.1.4 Build 226)  -->
  <path d="M177.98,90l-.15-.06c-8.1-3.48-20.78,2.1-29.84,4.39-26.74,6.03-30.19-9.81-7.9-21.48,5.9-3.21,12.13-4.94,17.72-8.82,10.4-6.78,12.14-15.02,2.1-16.86-5.54-1.09-12.82.64-18.27,2.49-6.42,2.2-13.6,4.17-20.46,3.91-14.08-.43-13.93-10.16-4.15-17.7,7.55-6.57,20.38-9.46,28.07-16.14,3.65-3.13,8.01-8.37,3.68-12.31-6.47-5.6-25.6-.57-35.87,7.16-11.45,8.25-3.05,12.82-10.34,21.19-3.73,4.23-9.24,7.73-16.39,10.92-3.95,1.76-8.16,3.55-11.76,5.95-8.21,5-14.91,15.84-.08,17.13,5.16.35,11.07-1,15.89-2.58,8.24-2.87,20.9-6.37,28.57-2.11,6.82,5.55-1.6,14.5-6.82,17.87-10.96,7.27-38.28,18.96-49.17,10.33-1.88-1.71-2.96-3.98-5.5-4.96-2.77-1.19-6.88-1.45-11.63-.74-7.46,1.2-14.14,3.7-20.33,7.83-6.86,4.46-13.38,12.41-4.64,16.15,8.61,3.48,20.82-2.27,30.03-4.48,17.46-4.37,29.83,2.8,17.33,14.78-2.8,2.65-6.73,5.29-11.33,7.6-6.39,3.14-12.06,4.81-17.82,9.18-15.75,12.21-2.4,18.59,11.28,15.03,5.85-1.3,11.23-3.74,17.17-4.85,18.9-4.06,28.12,4.85,14.7,16.23-6.92,6.4-19.82,9.73-27.46,15.65-8.26,6.11-9.78,14,.67,15.53,11.51,1.22,33.58-6.37,36.9-18.2.34-2.12-.04-4.32.53-6.52.54-2.36,1.92-4.48,3.54-6.24,4.01-4.35,9.93-7.92,17.66-11.24,6.95-2.94,18.53-8.78,19.02-16.61-.34-4.29-4.85-5.85-11.28-5.79-10.99.26-21.51,6.85-32.57,6.69-13.07.44-15.43-7.71-7.1-16.14,5.62-5.47,13.63-9.05,20.73-11.87,9.03-3.74,27.06-8.74,33.66-1.44,3.81,5.42,8.74,5.96,16.16,5.03,5.47-.86,10.51-2.4,15.29-4.79,8.48-3.88,20.49-14.72,10.16-19.15Z"/>
</svg>